<?xml version="1.0" standalone="no"?>
<!DOCTYPE svg PUBLIC "-//W3C//DTD SVG 20010904//EN"
 "http://www.w3.org/TR/2001/REC-SVG-20010904/DTD/svg10.dtd">
<svg version="1.0" xmlns="http://www.w3.org/2000/svg"
 width="72.000000pt" height="72.000000pt" viewBox="0 0 72.000000 72.000000"
 preserveAspectRatio="xMidYMid meet">
<metadata>
Created by potrace 1.11, written by Peter Selinger 2001-2013
</metadata>
<g transform="translate(0.000000,72.000000) scale(0.100000,-0.100000)"
fill="#000000" stroke="none">
<path d="M10 575 c0 -10 80 -128 81 -119 1 5 2 16 3 24 2 23 115 45 134 26 4
-4 -3 -15 -16 -24 -21 -16 -21 -19 -6 -40 21 -31 12 -37 -50 -36 l-53 1 21
-21 c12 -11 28 -32 37 -46 9 -14 19 -23 21 -20 25 29 159 252 154 257 -3 3 -8
-2 -12 -11 -3 -9 -11 -16 -16 -16 -6 0 -8 7 -4 15 7 20 -3 19 -26 -2 -17 -15
-18 -15 -18 0 0 21 -19 22 -26 2 -4 -8 -11 -15 -16 -15 -6 0 -8 7 -4 15 7 20
-3 19 -26 -2 -17 -15 -18 -15 -18 0 0 21 -16 22 -24 2 -3 -8 -10 -15 -17 -15
-6 0 -9 7 -5 15 7 20 -3 19 -26 -2 -17 -15 -18 -15 -18 0 0 21 -19 22 -26 2
-4 -8 -11 -15 -16 -15 -6 0 -8 7 -4 15 3 9 0 15 -9 15 -8 0 -15 -2 -15 -5z"/>
<path d="M380 571 c0 -17 18 -21 24 -6 3 9 0 15 -9 15 -8 0 -15 -4 -15 -9z"/>
<path d="M417 560 c-16 -19 -14 -24 55 -131 57 -89 73 -108 83 -97 26 28 156
240 151 245 -3 3 -8 -2 -12 -11 -3 -9 -11 -16 -16 -16 -6 0 -8 7 -4 15 3 8 2
15 -3 15 -5 0 -14 -7 -21 -15 -7 -8 -16 -15 -21 -15 -5 0 -6 7 -3 15 4 8 1 15
-5 15 -7 0 -14 -7 -17 -15 -4 -8 -11 -15 -16 -15 -6 0 -8 7 -4 15 7 20 -3 19
-26 -2 -17 -15 -18 -15 -18 0 0 21 -19 22 -26 2 -4 -8 -11 -15 -16 -15 -6 0
-8 7 -4 15 3 8 2 15 -3 15 -5 0 -14 -7 -21 -15 -7 -8 -16 -15 -21 -15 -5 0 -6
7 -3 15 9 21 -9 19 -29 -5z m141 -62 c9 -9 15 -9 23 -1 15 15 51 4 47 -15 -5
-24 -37 -40 -48 -23 -7 13 -11 13 -25 1 -15 -12 -19 -12 -30 4 -24 33 5 62 33
34z"/>
<path d="M280 449 c-41 -67 -76 -125 -78 -130 -2 -5 69 -9 158 -9 145 0 161 2
156 16 -10 25 -149 244 -155 244 -3 0 -40 -55 -81 -121z m85 1 c3 -5 -1 -10
-10 -10 -9 0 -13 5 -10 10 3 6 8 10 10 10 2 0 7 -4 10 -10z m11 -41 c10 -17
-13 -36 -27 -22 -12 12 -4 33 11 33 5 0 12 -5 16 -11z"/>
<path d="M200 294 c0 -7 139 -226 155 -242 10 -11 18 -5 42 35 17 27 53 86 82
131 l51 82 -165 0 c-91 0 -165 -3 -165 -6z m113 -64 c7 -27 -3 -62 -17 -57 -6
2 -12 14 -14 26 -7 45 20 72 31 31z m132 0 c7 -23 -12 -63 -26 -55 -10 7 -12
58 -2 68 11 12 21 8 28 -13z m-85 -56 c0 -2 -7 -4 -15 -4 -8 0 -15 4 -15 10 0
5 7 7 15 4 8 -4 15 -8 15 -10z"/>
</g>
</svg>
